<?xml version="1.0" encoding="UTF-8"?>
<svg width="76px" height="79px" viewBox="0 0 76 79" version="1.1" xmlns="http://www.w3.org/2000/svg" xmlns:xlink="http://www.w3.org/1999/xlink">
    <!-- Generator: Sketch 51.2 (57519) - http://www.bohemiancoding.com/sketch -->
    <title>hugging heart</title>
    <desc>Created with Sketch.</desc>
    <defs>
        <polygon id="path-1" points="0 0.0716958637 75.9486523 0.0716958637 75.9486523 78.9999423 0 78.9999423"></polygon>
        <polygon id="path-3" points="0 0.0716958637 75.9486523 0.0716958637 75.9486523 78.9999423 0 78.9999423"></polygon>
    </defs>
    <g id="hugging-heart" stroke="none" stroke-width="1" fill="none" fill-rule="evenodd">
        <g id="Group-7">
            <g id="Group-3">
                <mask id="mask-2" fill="white">
                    <use xlink:href="#path-1"></use>
                </mask>
                <g id="Clip-2"></g>
                <path d="M57.3527356,49.989547 L57.3250123,50.0534582 C57.3555079,50.0921893 57.3795985,50.1390895 57.4173595,50.1684022 C58.0282274,50.6443243 58.6757092,51.0640238 59.3469947,51.4492209 C59.5908639,51.5891528 59.8179079,51.7619533 60.0394073,51.9368681 C60.1915985,52.0570019 60.2900639,52.2252854 60.3381494,52.4182684 C60.4406299,52.8298949 60.1451381,53.2100944 59.7279507,53.1804934 C59.5475582,53.1676151 59.3615255,53.1291723 59.1936564,53.062474 C58.5685444,52.8143255 57.9465872,52.5571431 57.3296966,52.2887161 C56.7546777,52.0384533 56.1878803,51.7695457 55.6170677,51.50948 C55.5685042,51.4874715 55.5165947,51.472671 55.4667884,51.4529691 C54.9495104,51.2480689 54.4067079,51.1649363 53.8581696,51.1028511 C53.2806652,51.0374022 52.7039255,50.9626309 52.1508941,50.7699363 C51.9057821,50.6844971 51.6547431,50.6740214 51.4036086,50.7124642 C51.1472161,50.751772 50.8924488,50.8049192 50.6394979,50.8632562 C50.0586475,50.9970372 49.4826727,51.1551333 48.8982853,51.2698852 C48.476796,51.3526333 48.0655356,51.45912 47.6565696,51.5892489 C46.9424564,51.8162538 46.2251884,52.0357623 45.5021847,52.2323973 C42.6433419,53.0098073 39.7435834,53.6005774 36.8244186,54.0912039 C35.0534752,54.3887513 33.275362,54.6457416 31.4963884,54.892064 C30.1190199,55.0827404 28.7352463,55.2263243 27.354723,55.3952805 C26.7092488,55.4741844 26.0677897,55.5782684 25.4433469,55.7668304 C25.105601,55.8688961 24.7755985,55.9916248 24.4790551,56.1885482 C23.9384513,56.5476041 23.8199104,57.0159338 24.1498174,57.5761418 C24.2770576,57.7922866 24.4384262,57.9927659 24.6091633,58.1770032 C25.1759608,58.789109 25.8460035,59.2785822 26.5391809,59.7300932 C27.597923,60.4194691 28.6689972,61.0903925 29.7451381,61.7522818 C31.4659884,62.8104204 33.0244186,64.0598122 34.3464362,65.5999277 C35.6551658,67.1245701 36.6569318,68.8272988 37.3317545,70.7238754 C37.819206,72.0938815 38.1054249,73.5078085 38.1915582,74.9572951 C38.2684186,76.248974 38.2147884,77.539019 38.0028488,78.8190689 C37.9949142,78.8672185 38.0018928,78.9178669 38.0018928,78.9999423 C38.0923281,78.9515044 38.1595331,78.9197891 38.2223406,78.8809618 C41.3634828,76.9381577 44.4204991,74.8698377 47.3827784,72.6609131 C49.883513,70.7961479 52.3086299,68.8368134 54.6473268,66.7695506 C56.0776564,65.5052623 57.4817922,64.212238 58.8281872,62.8586662 C59.9039457,61.7772696 60.9599155,60.6750178 61.9943758,59.5536406 C62.8570475,58.6184229 63.6893192,57.6537964 64.5105972,56.6813852 C65.7384513,55.2274776 66.8970928,53.7181163 68.0026777,52.1679095 C69.8370979,49.5958925 71.4897872,46.9124873 72.9288161,44.0960701 C73.92064,42.1548998 74.7514777,40.1505871 75.3481972,38.0511285 C75.7300136,36.7081285 76.0109746,35.3502319 75.9366953,33.9391881 C75.919679,33.6134813 75.8751306,33.2961358 75.7795331,32.9872477 C75.5770576,32.333047 75.1897922,31.843862 74.5199406,31.6281978 C74.1668991,31.5145032 73.8032463,31.4828839 73.4325192,31.5180591 C72.8189746,31.5763 72.2309545,31.7372793 71.6516337,31.9406418 C69.6422702,32.6461637 67.5968664,33.2234788 65.509113,33.6408718 C64.1974199,33.9031479 62.8801821,34.1381297 61.5651431,34.3835871 C59.8743104,34.6991066 58.1848161,35.0224107 56.4915935,35.3244752 C54.9716891,35.5956893 53.4486299,35.850373 51.9247104,36.0979448 C51.0572589,36.2388377 50.1862702,36.3595482 49.3148991,36.4738195 C48.3679104,36.5980859 47.419201,36.7103389 46.469918,36.8169217 C45.6347784,36.9107221 44.7985872,36.9979873 43.96144,37.0722781 C43.2461796,37.1358049 42.5291985,37.1840506 41.8122174,37.2255689 C40.9500236,37.2754484 40.0874475,37.3255202 39.2243935,37.3485859 C38.4831306,37.3682878 37.7410073,37.3469521 36.9992664,37.3502197 C36.793445,37.3511808 36.5875281,37.3704983 36.3824714,37.3894314 C36.0400413,37.4208584 35.6988538,37.4689119 35.3559457,37.4911127 C34.9442073,37.5177343 34.5307482,37.5175421 34.118723,37.5420494 C33.6238148,37.5715543 33.1493645,37.6726589 32.7480463,37.9957708 C32.6770174,38.0529545 32.5966199,38.1013925 32.5145972,38.141373 C32.0055406,38.3892331 31.4917042,38.6269058 30.9861847,38.8813973 C30.7069444,39.0220981 30.4188136,39.1602039 30.1730325,39.349727 C29.6702853,39.7371345 29.1907683,40.1553925 28.7066626,40.5667307 C28.1988488,40.997963 27.6999255,41.439671 27.1905821,41.8690774 C27.0095205,42.0216954 26.8117293,42.1548036 26.6163281,42.2894496 C26.5352614,42.3452878 26.442723,42.3864217 26.3517142,42.4255372 C26.1651079,42.5059788 25.9896865,42.4695543 25.8336714,42.3489399 C25.6152312,42.1799837 25.5151406,41.949519 25.5714475,41.6794582 C25.6050979,41.5178061 25.6696262,41.3513487 25.7618777,41.2154533 C25.9117746,40.9945032 26.0830853,40.7847976 26.267684,40.5918146 C26.7824765,40.053519 27.258074,39.4840847 27.6846299,38.8731321 C27.7232513,38.8180628 27.7772639,38.7647234 27.7146475,38.6759204 C27.6777469,38.6837051 27.6325293,38.6853389 27.5944815,38.7027343 C27.3508035,38.813738 27.1096111,38.9302197 26.8658375,39.0410311 C26.6152765,39.1551102 26.368157,39.2797611 26.1101394,39.3737538 C24.9900236,39.7816321 23.82144,39.9816309 22.6498928,40.1623122 C22.2349042,40.2263195 21.8828186,39.9313669 21.8295708,39.5092647 C21.7821545,39.1331017 21.9469645,38.8047039 22.3049771,38.6477611 C22.6262803,38.506772 22.9610626,38.3943268 23.295367,38.2862063 C23.9286048,38.0814022 24.5682475,37.8950506 25.1602828,37.581165 C25.2100891,37.5546394 25.2546375,37.5179265 25.3016714,37.4859229 C24.9182299,37.4840007 24.5478853,37.4995701 24.185284,37.6000019 C23.8912262,37.6815007 23.593918,37.7532927 23.2947935,37.8130713 C23.0931784,37.8534363 22.8820991,37.8485348 22.6817268,37.8935129 C22.1375859,38.0154727 21.5959306,38.1496382 21.05504,38.2861102 C20.6238953,38.3949034 20.2150249,38.1107148 20.1714325,37.6627599 C20.1229645,37.1630032 20.364635,36.7841491 20.8411884,36.6083693 C21.2431758,36.4601723 21.6436337,36.3078426 22.0459079,36.1606066 C22.3326048,36.0557538 22.6177721,35.9443657 22.909918,35.8571005 C23.3346576,35.7302392 23.7657067,35.624137 24.193123,35.5058292 C24.5219784,35.4149119 24.8495909,35.3187088 25.2109494,35.2152976 C25.1553117,35.2009776 25.1356186,35.1919436 25.1156387,35.1912708 C24.5210224,35.1721455 23.9263104,35.1541735 23.3316941,35.1345676 C23.2630551,35.1322611 23.1949897,35.1182294 23.1264463,35.1149618 C22.6995079,35.0952599 22.272474,35.0687343 21.8452488,35.0613341 C21.5555884,35.0562404 21.2654501,35.0861297 20.9755029,35.0867063 C20.6810626,35.0871869 20.4550702,34.9405275 20.3301243,34.6816151 C20.1975306,34.4067489 20.2629192,34.1414934 20.4574601,33.909491 C20.6188287,33.7170847 20.8145167,33.567446 21.0543708,33.496519 C21.3620035,33.4055056 21.6725997,33.3198742 21.9870199,33.258654 C22.5562073,33.1478426 23.1248211,33.0206929 23.7115029,33.0501017 C23.7265117,33.0508706 23.7417117,33.0463535 23.7570073,33.0451041 C24.2368111,33.0070457 24.7160413,32.9506309 25.1964186,32.9363109 C25.6487859,32.9226637 26.0961821,32.8973876 26.5385117,32.7946491 C26.7391708,32.7481333 26.9463306,32.7309302 27.1486148,32.6909496 C27.2672513,32.6675956 27.3985067,32.6505847 27.4957293,32.5868657 C27.6866375,32.4615421 27.8624413,32.3111345 28.0344211,32.1596698 C28.100957,32.1010445 28.152484,32.0168547 28.1894803,31.9346832 C28.268635,31.7582307 28.2312564,31.6255068 28.070557,31.5156564 C27.9381545,31.4251236 27.7990601,31.3427599 27.6561419,31.2700068 C27.2538677,31.0649144 26.862874,30.8468474 26.4938677,30.5801504 C26.0040262,30.226092 25.6584413,29.7707367 25.4315884,29.2218693 C25.3633318,29.0569496 25.3347482,28.861564 25.3415356,28.6821321 C25.3563532,28.2925141 25.5393268,27.9843949 25.903362,27.8266832 C26.2650073,27.6699326 26.5725444,27.8149582 26.8504463,28.0541686 C27.0594224,28.234081 27.264957,28.4190871 27.4835884,28.5866017 C27.7139784,28.7631504 27.9402576,28.960362 28.1997092,29.0802075 C28.7687054,29.3428681 29.3588287,29.5590129 29.9374803,29.8011066 C30.1485595,29.8893328 30.3557192,29.9894764 30.5575255,30.0975007 C30.99584,30.3321942 31.4274626,30.5793815 31.8657771,30.8139788 C32.3116438,31.0524204 32.7510098,31.2961479 33.1424815,31.6248341 C33.3087255,31.7644776 33.5106274,31.8843231 33.716162,31.9495798 C34.5031205,32.199362 35.2971532,32.3078669 36.1326752,32.165244 C37.8957796,31.864429 39.6630903,31.5892745 41.4148186,31.2237793 C44.1054098,30.6625141 46.7542249,29.9491114 49.350557,29.0408036 C52.1807205,28.0508049 54.9145218,26.8444691 57.5384815,25.3877745 C59.9613997,24.0427562 62.2568865,22.5061966 64.397123,20.7418633 C65.9639658,19.4500883 67.4897972,18.1097793 68.9671608,16.7143049 C69.8825067,15.8497258 70.7555029,14.9464156 71.5232463,13.9450762 C72.08144,13.2169691 72.5623909,12.443019 72.8699281,11.5708474 C73.1327255,10.8256333 73.2216312,10.0630238 73.0908538,9.27888637 C72.9774752,8.59969781 72.704162,7.98615036 72.3335306,7.4132562 C71.7209419,6.4665056 70.9186878,5.69889854 70.0385218,5.01355912 C68.0208413,3.44268929 65.8055608,2.23395085 63.3931582,1.39118808 C61.2410677,0.639246472 59.0276035,0.199941119 56.7532438,0.0942233577 C55.2915582,0.0262756691 53.8357042,0.111618735 52.3885494,0.351405839 C50.4648413,0.670192944 48.6277444,1.25356277 46.8887306,2.13842044 C44.8836689,3.15859684 43.1143507,4.49515766 41.5839306,6.15310049 C40.358084,7.48110779 39.3397796,8.95202628 38.5260538,10.5666248 C37.9610727,11.6877136 37.5119557,12.8548377 37.1809016,14.0673243 C37.1555683,14.1599715 37.1242123,14.251081 37.083201,14.3835165 C37.0123633,14.2931759 36.9682928,14.2434886 36.9315834,14.1888036 C35.8256161,12.5368195 34.4990098,11.0902161 32.9446903,9.85524039 C31.2677192,8.52281217 29.4211582,7.5004253 27.4036689,6.78961752 C25.7549947,6.20865036 24.0567054,5.86775864 22.3150148,5.77030608 C21.115362,5.70303114 19.9148488,5.73945572 18.722079,5.90956521 C17.4481469,6.09130365 16.1957243,6.37020633 14.9660538,6.75280852 C12.6442777,7.47534136 10.4962979,8.54558954 8.54008654,9.9984399 C6.97467774,11.161047 5.59960352,12.5233645 4.38236075,14.0464691 C2.70777962,16.1417951 1.41864755,18.4474995 0.659890314,21.0362392 C0.0672815094,23.0578511 -0.152783899,25.1133888 0.108866415,27.2139046 C0.285243774,28.6297538 0.672795975,29.9830372 1.27419975,31.2734667 C2.23141736,33.3271783 3.61891925,35.0511467 5.33202616,36.5090908 C7.7399356,38.5583815 10.3570123,40.3007063 13.1466425,41.77989 C15.3018878,42.9227951 17.5381997,43.8779071 19.8507029,44.6497428 C22.0744916,45.3920737 24.3392916,45.9766929 26.6507431,46.365446 C27.7656966,46.5529509 28.8860991,46.7126808 30.0082224,46.8504022 C30.8114325,46.9489119 31.6209519,47.0023474 32.4290375,47.0529959 C33.3212488,47.1089302 34.2148941,47.1649606 35.1083482,47.173418 C36.2853444,47.1845664 37.4628186,47.1494873 38.6401972,47.1341102 C38.6706928,47.1337258 38.701284,47.1316114 38.7318752,47.1294971 C39.5856564,47.0726978 40.4401067,47.023491 41.2932186,46.9566005 C42.0091482,46.900474 42.7245042,46.8336796 43.438235,46.7540068 C44.2582702,46.6623207 45.0763935,46.5535275 45.8948991,46.4477136 C46.4935306,46.3704436 47.0927356,46.2949995 47.6891683,46.2023523 C48.4721117,46.0807769 49.1472211,45.7073049 49.7785469,45.2480092 C49.8991909,45.1601674 50.0057821,45.0374387 50.0848413,44.9094241 C50.4114023,44.3802586 50.8473268,43.9511406 51.2917595,43.5271163 C51.5132589,43.3156808 51.7239557,43.0927124 51.9393369,42.8748377 C52.1544312,42.6571552 52.3558551,42.4234229 52.5872966,42.2250579 C52.9826878,41.8862805 53.3990148,41.5722988 53.801767,41.242171 C53.9612236,41.1115616 54.1336815,40.9850847 54.2557595,40.8227599 C54.5503909,40.4308353 54.8188287,40.0190165 55.0978777,39.6152708 C55.1501696,39.5396345 55.1961519,39.458328 55.2560916,39.3893231 C55.5498626,39.0511224 55.9826325,38.9924971 56.3497268,39.2471808 C56.7218878,39.5054204 56.8361268,39.8846589 56.8031457,40.3157951 C56.7388086,41.1565397 56.3144513,41.8228499 55.7620891,42.4197708 C55.5072262,42.6953097 55.2276991,42.9475908 54.9737922,43.2238024 C54.7982752,43.414671 54.8072614,43.6095762 55.0157595,43.7601759 C55.354079,44.0046723 55.7216513,44.1885251 56.1642677,44.1142343 C56.3450425,44.0839606 56.5276337,44.0640664 56.7100337,44.0453255 C57.1209117,44.003519 57.5245243,43.9353791 57.9248865,43.8233182 C58.3732387,43.6978024 58.8378425,43.6331224 59.2902098,43.5206771 C59.823357,43.3881455 60.3419733,43.2046771 60.9037042,43.1981418 C61.2914475,43.1935287 61.6779482,43.1141443 62.0663608,43.0973255 C62.4339331,43.0814679 62.7824815,43.1671954 63.0599054,43.4359107 C63.4459281,43.809671 63.2771985,44.4222574 62.7861142,44.5890993 C62.5257067,44.6775178 62.2567909,44.7399873 61.9932287,44.8191796 C61.7007004,44.9070214 61.4057821,44.9891929 61.1191809,45.0940457 C60.5669142,45.2959667 60.020957,45.515283 59.4699331,45.7207599 C59.2912614,45.787362 59.1048463,45.8332051 58.9222551,45.8892355 C58.8661394,45.9065348 58.8107884,45.926429 58.7591658,45.9436321 C58.9798048,45.9436321 59.1988186,45.9446893 59.4177369,45.9434399 C59.830718,45.9412294 60.2449419,45.9571832 60.6562979,45.9295044 C61.1610526,45.8954825 61.6617922,45.8855835 62.1660689,45.9421905 C62.5757042,45.9882258 62.9901192,45.9910129 63.4002325,46.0339727 C63.5548136,46.0501187 63.7165645,46.101536 63.8517394,46.1782294 C64.1737117,46.360929 64.3590752,46.780244 64.2869947,47.1000883 C64.2025821,47.4743292 63.9543155,47.6719253 63.5733595,47.6892246 C63.0317042,47.7140202 62.4865117,47.7185372 61.9503054,47.7889837 C61.3593218,47.8665421 60.7737872,47.9626491 60.1742953,47.9705299 C59.8793771,47.9743742 59.5855104,48.0670214 59.2912614,48.1194959 L59.2929821,48.1769679 C59.4176413,48.2003219 59.5415356,48.2278085 59.6669595,48.2463572 C60.2586123,48.334199 60.8546626,48.3387161 61.4511909,48.3421759 C61.7945771,48.3442903 62.1378677,48.3687015 62.480967,48.3874423 C62.6626979,48.3973414 62.8235884,48.4704788 62.9596236,48.5888827 C63.2250023,48.8194436 63.2965092,49.1139156 63.2008161,49.4449083 C63.1128664,49.7492793 62.9005444,49.915929 62.5865067,49.9528341 C62.4043935,49.974362 62.2232362,50.0051163 62.0409318,50.0235689 C61.3797796,50.0907477 60.7192966,50.1695555 60.0566148,50.2151102 C59.3829394,50.2613377 58.7130878,50.1963693 58.0483985,50.0727757 C57.8192513,50.0302002 57.5848463,50.0163608 57.3527356,49.989547" id="Fill-1" fill="#FFFFFE" mask="url(#mask-2)"></path>
            </g>
            <g id="Group-6">
                <mask id="mask-4" fill="white">
                    <use xlink:href="#path-3"></use>
                </mask>
                <g id="Clip-5"></g>
                <path d="M57.3527356,49.989547 C57.5848463,50.0163608 57.8192513,50.0302002 58.0483985,50.0727757 C58.7130878,50.1963693 59.3829394,50.2613377 60.0566148,50.2151102 C60.7192966,50.1695555 61.3797796,50.0907477 62.0409318,50.0235689 C62.2232362,50.0051163 62.4043935,49.974362 62.5865067,49.9528341 C62.9005444,49.915929 63.1128664,49.7492793 63.2008161,49.4449083 C63.2965092,49.1139156 63.2250023,48.8194436 62.9596236,48.5888827 C62.8235884,48.4704788 62.6626979,48.3973414 62.480967,48.3874423 C62.1378677,48.3687015 61.7945771,48.3442903 61.4511909,48.3421759 C60.8546626,48.3387161 60.2586123,48.334199 59.6669595,48.2463572 C59.5415356,48.2278085 59.4176413,48.2003219 59.2929821,48.1769679 L59.2912614,48.1194959 C59.5855104,48.0670214 59.8793771,47.9743742 60.1742953,47.9705299 C60.7737872,47.9626491 61.3593218,47.8665421 61.9503054,47.7889837 C62.4865117,47.7185372 63.0317042,47.7140202 63.5733595,47.6892246 C63.9543155,47.6719253 64.2025821,47.4743292 64.2869947,47.1000883 C64.3590752,46.780244 64.1737117,46.360929 63.8517394,46.1782294 C63.7165645,46.101536 63.5548136,46.0501187 63.4002325,46.0339727 C62.9901192,45.9910129 62.5757042,45.9882258 62.1660689,45.9421905 C61.6617922,45.8855835 61.1610526,45.8954825 60.6562979,45.9295044 C60.2449419,45.9571832 59.830718,45.9412294 59.4177369,45.9434399 C59.1988186,45.9446893 58.9798048,45.9436321 58.7591658,45.9436321 C58.8107884,45.926429 58.8661394,45.9065348 58.9222551,45.8892355 C59.1048463,45.8332051 59.2912614,45.787362 59.4699331,45.7207599 C60.020957,45.515283 60.5669142,45.2959667 61.1191809,45.0940457 C61.4057821,44.9891929 61.7007004,44.9070214 61.9932287,44.8191796 C62.2567909,44.7399873 62.5257067,44.6775178 62.7861142,44.5890993 C63.2771985,44.4222574 63.4459281,43.809671 63.0599054,43.4359107 C62.7824815,43.1671954 62.4339331,43.0814679 62.0663608,43.0973255 C61.6779482,43.1141443 61.2914475,43.1935287 60.9037042,43.1981418 C60.3419733,43.2046771 59.823357,43.3881455 59.2902098,43.5206771 C58.8378425,43.6331224 58.3732387,43.6978024 57.9248865,43.8233182 C57.5245243,43.9353791 57.1209117,44.003519 56.7100337,44.0453255 C56.5276337,44.0640664 56.3450425,44.0839606 56.1642677,44.1142343 C55.7216513,44.1885251 55.354079,44.0046723 55.0157595,43.7601759 C54.8072614,43.6095762 54.7982752,43.414671 54.9737922,43.2238024 C55.2276991,42.9475908 55.5072262,42.6953097 55.7620891,42.4197708 C56.3144513,41.8228499 56.7388086,41.1565397 56.8031457,40.3157951 C56.8361268,39.8846589 56.7218878,39.5054204 56.3497268,39.2471808 C55.9826325,38.9924971 55.5498626,39.0511224 55.2560916,39.3893231 C55.1961519,39.458328 55.1501696,39.5396345 55.0978777,39.6152708 C54.8188287,40.0190165 54.5503909,40.4308353 54.2557595,40.8227599 C54.1336815,40.9850847 53.9612236,41.1115616 53.801767,41.242171 C53.3990148,41.5722988 52.9826878,41.8862805 52.5872966,42.2250579 C52.3558551,42.4234229 52.1544312,42.6571552 51.9393369,42.8748377 C51.7239557,43.0927124 51.5132589,43.3156808 51.2917595,43.5271163 C50.8473268,43.9511406 50.4114023,44.3802586 50.0848413,44.9094241 C50.0057821,45.0374387 49.8991909,45.1601674 49.7785469,45.2480092 C49.1472211,45.7073049 48.4721117,46.0807769 47.6891683,46.2023523 C47.0927356,46.2949995 46.4935306,46.3704436 45.8948991,46.4477136 C45.0763935,46.5535275 44.2582702,46.6623207 43.438235,46.7540068 C42.7245042,46.8336796 42.0091482,46.900474 41.2932186,46.9566005 C40.4401067,47.023491 39.5856564,47.0726978 38.7318752,47.1294971 C38.701284,47.1316114 38.6706928,47.1337258 38.6401972,47.1341102 C37.4628186,47.1494873 36.2853444,47.1845664 35.1083482,47.173418 C34.2148941,47.1649606 33.3212488,47.1089302 32.4290375,47.0529959 C31.6209519,47.0023474 30.8114325,46.9489119 30.0082224,46.8504022 C28.8860991,46.7126808 27.7656966,46.5529509 26.6507431,46.365446 C24.3392916,45.9766929 22.0744916,45.3920737 19.8507029,44.6497428 C17.5381997,43.8779071 15.3018878,42.9227951 13.1466425,41.77989 C10.3570123,40.3007063 7.7399356,38.5583815 5.33202616,36.5090908 C3.61891925,35.0511467 2.23141736,33.3271783 1.27419975,31.2734667 C0.672795975,29.9830372 0.285243774,28.6297538 0.108866415,27.2139046 C-0.152783899,25.1133888 0.0672815094,23.0578511 0.659890314,21.0362392 C1.41864755,18.4474995 2.70777962,16.1417951 4.38236075,14.0464691 C5.59960352,12.5233645 6.97467774,11.161047 8.54008654,9.9984399 C10.4962979,8.54558954 12.6442777,7.47534136 14.9660538,6.75280852 C16.1957243,6.37020633 17.4481469,6.09130365 18.722079,5.90956521 C19.9148488,5.73945572 21.115362,5.70303114 22.3150148,5.77030608 C24.0567054,5.86775864 25.7549947,6.20865036 27.4036689,6.78961752 C29.4211582,7.5004253 31.2677192,8.52281217 32.9446903,9.85524039 C34.4990098,11.0902161 35.8256161,12.5368195 36.9315834,14.1888036 C36.9682928,14.2434886 37.0123633,14.2931759 37.083201,14.3835165 C37.1242123,14.251081 37.1555683,14.1599715 37.1809016,14.0673243 C37.5119557,12.8548377 37.9610727,11.6877136 38.5260538,10.5666248 C39.3397796,8.95202628 40.358084,7.48110779 41.5839306,6.15310049 C43.1143507,4.49515766 44.8836689,3.15859684 46.8887306,2.13842044 C48.6277444,1.25356277 50.4648413,0.670192944 52.3885494,0.351405839 C53.8357042,0.111618735 55.2915582,0.0262756691 56.7532438,0.0942233577 C59.0276035,0.199941119 61.2410677,0.639246472 63.3931582,1.39118808 C65.8055608,2.23395085 68.0208413,3.44268929 70.0385218,5.01355912 C70.9186878,5.69889854 71.7209419,6.4665056 72.3335306,7.4132562 C72.704162,7.98615036 72.9774752,8.59969781 73.0908538,9.27888637 C73.2216312,10.0630238 73.1327255,10.8256333 72.8699281,11.5708474 C72.5623909,12.443019 72.08144,13.2169691 71.5232463,13.9450762 C70.7555029,14.9464156 69.8825067,15.8497258 68.9671608,16.7143049 C67.4897972,18.1097793 65.9639658,19.4500883 64.397123,20.7418633 C62.2568865,22.5061966 59.9613997,24.0427562 57.5384815,25.3877745 C54.9145218,26.8444691 52.1807205,28.0508049 49.350557,29.0408036 C46.7542249,29.9491114 44.1054098,30.6625141 41.4148186,31.2237793 C39.6630903,31.5892745 37.8957796,31.864429 36.1326752,32.165244 C35.2971532,32.3078669 34.5031205,32.199362 33.716162,31.9495798 C33.5106274,31.8843231 33.3087255,31.7644776 33.1424815,31.6248341 C32.7510098,31.2961479 32.3116438,31.0524204 31.8657771,30.8139788 C31.4274626,30.5793815 30.99584,30.3321942 30.5575255,30.0975007 C30.3557192,29.9894764 30.1485595,29.8893328 29.9374803,29.8011066 C29.3588287,29.5590129 28.7687054,29.3428681 28.1997092,29.0802075 C27.9402576,28.960362 27.7139784,28.7631504 27.4835884,28.5866017 C27.264957,28.4190871 27.0594224,28.234081 26.8504463,28.0541686 C26.5725444,27.8149582 26.2650073,27.6699326 25.903362,27.8266832 C25.5393268,27.9843949 25.3563532,28.2925141 25.3415356,28.6821321 C25.3347482,28.861564 25.3633318,29.0569496 25.4315884,29.2218693 C25.6584413,29.7707367 26.0040262,30.226092 26.4938677,30.5801504 C26.862874,30.8468474 27.2538677,31.0649144 27.6561419,31.2700068 C27.7990601,31.3427599 27.9381545,31.4251236 28.070557,31.5156564 C28.2312564,31.6255068 28.268635,31.7582307 28.1894803,31.9346832 C28.152484,32.0168547 28.100957,32.1010445 28.0344211,32.1596698 C27.8624413,32.3111345 27.6866375,32.4615421 27.4957293,32.5868657 C27.3985067,32.6505847 27.2672513,32.6675956 27.1486148,32.6909496 C26.9463306,32.7309302 26.7391708,32.7481333 26.5385117,32.7946491 C26.0961821,32.8973876 25.6487859,32.9226637 25.1964186,32.9363109 C24.7160413,32.9506309 24.2368111,33.0070457 23.7570073,33.0451041 C23.7417117,33.0463535 23.7265117,33.0508706 23.7115029,33.0501017 C23.1248211,33.0206929 22.5562073,33.1478426 21.9870199,33.258654 C21.6725997,33.3198742 21.3620035,33.4055056 21.0543708,33.496519 C20.8145167,33.567446 20.6188287,33.7170847 20.4574601,33.909491 C20.2629192,34.1414934 20.1975306,34.4067489 20.3301243,34.6816151 C20.4550702,34.9405275 20.6810626,35.0871869 20.9755029,35.0867063 C21.2654501,35.0861297 21.5555884,35.0562404 21.8452488,35.0613341 C22.272474,35.0687343 22.6995079,35.0952599 23.1264463,35.1149618 C23.1949897,35.1182294 23.2630551,35.1322611 23.3316941,35.1345676 C23.9263104,35.1541735 24.5210224,35.1721455 25.1156387,35.1912708 C25.1356186,35.1919436 25.1553117,35.2009776 25.2109494,35.2152976 C24.8495909,35.3187088 24.5219784,35.4149119 24.193123,35.5058292 C23.7657067,35.624137 23.3346576,35.7302392 22.909918,35.8571005 C22.6177721,35.9443657 22.3326048,36.0557538 22.0459079,36.1606066 C21.6436337,36.3078426 21.2431758,36.4601723 20.8411884,36.6083693 C20.364635,36.7841491 20.1229645,37.1630032 20.1714325,37.6627599 C20.2150249,38.1107148 20.6238953,38.3949034 21.05504,38.2861102 C21.5959306,38.1496382 22.1375859,38.0154727 22.6817268,37.8935129 C22.8820991,37.8485348 23.0931784,37.8534363 23.2947935,37.8130713 C23.593918,37.7532927 23.8912262,37.6815007 24.185284,37.6000019 C24.5478853,37.4995701 24.9182299,37.4840007 25.3016714,37.4859229 C25.2546375,37.5179265 25.2100891,37.5546394 25.1602828,37.581165 C24.5682475,37.8950506 23.9286048,38.0814022 23.295367,38.2862063 C22.9610626,38.3943268 22.6262803,38.506772 22.3049771,38.6477611 C21.9469645,38.8047039 21.7821545,39.1331017 21.8295708,39.5092647 C21.8828186,39.9313669 22.2349042,40.2263195 22.6498928,40.1623122 C23.82144,39.9816309 24.9900236,39.7816321 26.1101394,39.3737538 C26.368157,39.2797611 26.6152765,39.1551102 26.8658375,39.0410311 C27.1096111,38.9302197 27.3508035,38.813738 27.5944815,38.7027343 C27.6325293,38.6853389 27.6777469,38.6837051 27.7146475,38.6759204 C27.7772639,38.7647234 27.7232513,38.8180628 27.6846299,38.8731321 C27.258074,39.4840847 26.7824765,40.053519 26.267684,40.5918146 C26.0830853,40.7847976 25.9117746,40.9945032 25.7618777,41.2154533 C25.6696262,41.3513487 25.6050979,41.5178061 25.5714475,41.6794582 C25.5151406,41.949519 25.6152312,42.1799837 25.8336714,42.3489399 C25.9896865,42.4695543 26.1651079,42.5059788 26.3517142,42.4255372 C26.442723,42.3864217 26.5352614,42.3452878 26.6163281,42.2894496 C26.8117293,42.1548036 27.0095205,42.0216954 27.1905821,41.8690774 C27.6999255,41.439671 28.1988488,40.997963 28.7066626,40.5667307 C29.1907683,40.1553925 29.6702853,39.7371345 30.1730325,39.349727 C30.4188136,39.1602039 30.7069444,39.0220981 30.9861847,38.8813973 C31.4917042,38.6269058 32.0055406,38.3892331 32.5145972,38.141373 C32.5966199,38.1013925 32.6770174,38.0529545 32.7480463,37.9957708 C33.1493645,37.6726589 33.6238148,37.5715543 34.118723,37.5420494 C34.5307482,37.5175421 34.9442073,37.5177343 35.3559457,37.4911127 C35.6988538,37.4689119 36.0400413,37.4208584 36.3824714,37.3894314 C36.5875281,37.3704983 36.793445,37.3511808 36.9992664,37.3502197 C37.7410073,37.3469521 38.4831306,37.3682878 39.2243935,37.3485859 C40.0874475,37.3255202 40.9500236,37.2754484 41.8122174,37.2255689 C42.5291985,37.1840506 43.2461796,37.1358049 43.96144,37.0722781 C44.7985872,36.9979873 45.6347784,36.9107221 46.469918,36.8169217 C47.419201,36.7103389 48.3679104,36.5980859 49.3148991,36.4738195 C50.1862702,36.3595482 51.0572589,36.2388377 51.9247104,36.0979448 C53.4486299,35.850373 54.9716891,35.5956893 56.4915935,35.3244752 C58.1848161,35.0224107 59.8743104,34.6991066 61.5651431,34.3835871 C62.8801821,34.1381297 64.1974199,33.9031479 65.509113,33.6408718 C67.5968664,33.2234788 69.6422702,32.6461637 71.6516337,31.9406418 C72.2309545,31.7372793 72.8189746,31.5763 73.4325192,31.5180591 C73.8032463,31.4828839 74.1668991,31.5145032 74.5199406,31.6281978 C75.1897922,31.843862 75.5770576,32.333047 75.7795331,32.9872477 C75.8751306,33.2961358 75.919679,33.6134813 75.9366953,33.9391881 C76.0109746,35.3502319 75.7300136,36.7081285 75.3481972,38.0511285 C74.7514777,40.1505871 73.92064,42.1548998 72.9288161,44.0960701 C71.4897872,46.9124873 69.8370979,49.5958925 68.0026777,52.1679095 C66.8970928,53.7181163 65.7384513,55.2274776 64.5105972,56.6813852 C63.6893192,57.6537964 62.8570475,58.6184229 61.9943758,59.5536406 C60.9599155,60.6750178 59.9039457,61.7772696 58.8281872,62.8586662 C57.4817922,64.212238 56.0776564,65.5052623 54.6473268,66.7695506 C52.3086299,68.8368134 49.883513,70.7961479 47.3827784,72.6609131 C44.4204991,74.8698377 41.3634828,76.9381577 38.2223406,78.8809618 C38.1595331,78.9197891 38.0923281,78.9515044 38.0018928,78.9999423 C38.0018928,78.9178669 37.9949142,78.8672185 38.0028488,78.8190689 C38.2147884,77.539019 38.2684186,76.248974 38.1915582,74.9572951 C38.1054249,73.5078085 37.819206,72.0938815 37.3317545,70.7238754 C36.6569318,68.8272988 35.6551658,67.1245701 34.3464362,65.5999277 C33.0244186,64.0598122 31.4659884,62.8104204 29.7451381,61.7522818 C28.6689972,61.0903925 27.597923,60.4194691 26.5391809,59.7300932 C25.8460035,59.2785822 25.1759608,58.789109 24.6091633,58.1770032 C24.4384262,57.9927659 24.2770576,57.7922866 24.1498174,57.5761418 C23.8199104,57.0159338 23.9384513,56.5476041 24.4790551,56.1885482 C24.7755985,55.9916248 25.105601,55.8688961 25.4433469,55.7668304 C26.0677897,55.5782684 26.7092488,55.4741844 27.354723,55.3952805 C28.7352463,55.2263243 30.1190199,55.0827404 31.4963884,54.892064 C33.275362,54.6457416 35.0534752,54.3887513 36.8244186,54.0912039 C39.7435834,53.6005774 42.6433419,53.0098073 45.5021847,52.2323973 C46.2251884,52.0357623 46.9424564,51.8162538 47.6565696,51.5892489 C48.0655356,51.45912 48.476796,51.3526333 48.8982853,51.2698852 C49.4826727,51.1551333 50.0586475,50.9970372 50.6394979,50.8632562 C50.8924488,50.8049192 51.1472161,50.751772 51.4036086,50.7124642 C51.6547431,50.6740214 51.9057821,50.6844971 52.1508941,50.7699363 C52.7039255,50.9626309 53.2806652,51.0374022 53.8581696,51.1028511 C54.4067079,51.1649363 54.9495104,51.2480689 55.4667884,51.4529691 C55.5165947,51.472671 55.5685042,51.4874715 55.6170677,51.50948 C56.1878803,51.7695457 56.7546777,52.0384533 57.3296966,52.2887161 C57.9465872,52.5571431 58.5685444,52.8143255 59.1936564,53.062474 C59.3615255,53.1291723 59.5475582,53.1676151 59.7279507,53.1804934 C60.1451381,53.2100944 60.4406299,52.8298949 60.3381494,52.4182684 C60.2900639,52.2252854 60.1915985,52.0570019 60.0394073,51.9368681 C59.8179079,51.7619533 59.5908639,51.5891528 59.3469947,51.4492209 C58.6757092,51.0640238 58.0282274,50.6443243 57.4173595,50.1684022 C57.3795985,50.1390895 57.3555079,50.0921893 57.3250123,50.0534582 L57.3527356,49.989547 Z" id="Fill-4" fill="#7060D7" mask="url(#mask-4)"></path>
            </g>
        </g>
    </g>
</svg>