<?xml version="1.0" encoding="UTF-8"?>
<svg width="21px" height="13px" viewBox="0 0 21 13" version="1.1" xmlns="http://www.w3.org/2000/svg" xmlns:xlink="http://www.w3.org/1999/xlink">
    <!-- Generator: Sketch 51.2 (57519) - http://www.bohemiancoding.com/sketch -->
    <title>ios-done-all</title>
    <desc>Created with Sketch.</desc>
    <defs/>
    <g id="ios-done-all" stroke="none" stroke-width="1" fill="none" fill-rule="evenodd">
        <g fill-rule="nonzero" id="Shape">
            <path d="M14.9116429,3.03282532 C15.0260631,2.90621336 15.0327937,2.70222743 14.9116429,2.57561547 L13.5789842,1.09847597 C13.5251394,1.03516999 13.4443722,1 13.363605,1 C13.2828378,1 13.2020706,1.03516999 13.1482258,1.09847597 L8.67237726,5.95896835 L10.4492555,7.86518171 L14.9116429,3.03282532 Z M1.87447192,6.04337632 C1.81389653,5.98007034 1.73985993,5.94490035 1.65909274,5.94490035 C1.57832555,5.94490035 1.50428895,5.98007034 1.44371356,6.04337632 L0.0908630912,7.49941383 C-0.0302876971,7.62602579 -0.0302876971,7.83704572 0.0908630912,7.96365768 L4.34460188,12.5357562 C4.61382586,12.8311841 4.95035582,13 5.233041,13 C5.63687696,13 5.98013752,12.6834701 6.11474951,12.5498242 L6.12148011,12.5427902 L7.02338042,11.5720985 L1.87447192,6.04337632 Z" fill="#45B64A"/>
            <path d="M20.916127,1.52142111 L19.6136294,0.0950888192 C19.5610032,0.0339602926 19.4820639,0 19.4031247,0 C19.3241854,0 19.2452462,0.0339602926 19.19262,0.0950888192 L10.1277624,9.78735632 L6.83204851,6.28265413 C6.77284407,6.2215256 6.70048309,6.18756531 6.62154384,6.18756531 C6.54260458,6.18756531 6.4702436,6.2215256 6.41103916,6.28265413 L5.08880666,7.68861024 C4.97039778,7.81086729 4.97039778,8.01462905 5.08880666,8.1368861 L9.24627403,12.5517241 C9.50940487,12.8369906 9.83831843,13 10.1146058,13 C10.5093021,13 10.8447939,12.6943574 10.9763593,12.5653083 L10.9829376,12.5585162 L20.916127,1.95611285 C21.0279577,1.84064786 21.0279577,1.64367816 20.916127,1.52142111 Z" fill="#51FF58"/>
        </g>
    </g>
</svg>