<?xml version="1.0" encoding="UTF-8"?>
<svg width="22px" height="16px" viewBox="0 0 22 16" version="1.1" xmlns="http://www.w3.org/2000/svg" xmlns:xlink="http://www.w3.org/1999/xlink">
    <!-- Generator: Sketch 51.2 (57519) - http://www.bohemiancoding.com/sketch -->
    <title>ios-repeat</title>
    <desc>Created with Sketch.</desc>
    <defs/>
    <g id="ios-repeat" stroke="none" stroke-width="1" fill="none" fill-rule="evenodd">
        <g fill="#7060D7" fill-rule="nonzero" id="Shape">
            <path d="M15.6177083,2.20576328 L13.6927083,0.240019176 C13.4921875,0.0340280278 13.2057292,-0.0483684315 12.9135417,0.0281425664 C12.8447917,0.0457989505 12.7760417,0.0752262574 12.7130208,0.116424487 C12.44375,0.287102867 12.3005208,0.575490474 12.3234375,0.887419927 C12.3348958,1.08752561 12.4322917,1.27586038 12.5697917,1.42299691 L13.4864583,2.35878527 L4.46875,2.35878527 C3.27708333,2.35878527 2.15989583,2.83550764 1.31197917,3.70655593 C0.4640625,4.57171875 0,5.71938372 0,6.94355968 L0,7.8852335 C0,8.33841403 0.3609375,8.7091981 0.802083333,8.7091981 C1.24322917,8.7091981 1.60416667,8.33841403 1.60416667,7.8852335 L1.60416667,6.94355968 C1.60416667,6.16079332 1.90208333,5.42511065 2.44635417,4.86599182 C2.990625,4.30687299 3.70677083,4.000829 4.46875,4.000829 L13.371875,4.000829 L12.4552083,4.93661735 C12.3177083,5.07786843 12.2260417,5.25443227 12.2088542,5.44865249 C12.1859375,5.69584187 12.271875,5.93714579 12.44375,6.11370963 C12.5927083,6.26673162 12.7989583,6.35501355 13.0109375,6.35501355 C13.2229167,6.35501355 13.4234375,6.27261709 13.578125,6.11370963 L15.6177083,4.0302563 C15.8583333,3.78895239 15.9901042,3.45936655 15.9901042,3.11800979 C15.984375,2.77076757 15.8526042,2.44706719 15.6177083,2.20576328 Z M20.3958333,8.12065196 L20.3958333,9.06232578 C20.3958333,9.84509214 20.0979167,10.5807748 19.5536458,11.1398936 C19.009375,11.6990125 18.2932292,12.0050565 17.53125,12.0050565 L8.628125,12.0050565 L9.54479167,11.0692681 C9.68229167,10.928017 9.77395833,10.7514532 9.79114583,10.5513475 C9.8140625,10.3041581 9.728125,10.0628542 9.55625,9.88629037 C9.40729167,9.73326838 9.20104167,9.64498645 8.9890625,9.64498645 C8.77708333,9.64498645 8.5765625,9.72738291 8.421875,9.88629037 L6.38229167,11.9697437 C6.14166667,12.2110476 6.00989583,12.5406335 6.00989583,12.8819902 C6.00989583,13.2292324 6.14166667,13.5529328 6.38229167,13.7942367 L8.30729167,15.7599808 C8.5078125,15.965972 8.79427083,16.0483684 9.08645833,15.9718574 C9.15520833,15.954201 9.22395833,15.9247737 9.28697917,15.8835755 C9.55625,15.7128971 9.69947917,15.4245095 9.6765625,15.1125801 C9.66510417,14.9124744 9.56770833,14.7241396 9.43020833,14.5770031 L8.51354167,13.6412147 L17.53125,13.6412147 C19.9947917,13.6412147 22,11.5813032 22,9.05055486 L22,8.10888104 C22,7.66747143 21.6390625,7.29668737 21.1979167,7.29668737 C20.7567708,7.29668737 20.3958333,7.66747143 20.3958333,8.12065196 Z"/>
        </g>
    </g>
</svg>