<?xml version="1.0" encoding="UTF-8"?>
<svg width="21px" height="21px" viewBox="0 0 21 21" version="1.1" xmlns="http://www.w3.org/2000/svg" xmlns:xlink="http://www.w3.org/1999/xlink">
    <!-- Generator: Sketch 51.2 (57519) - http://www.bohemiancoding.com/sketch -->
    <title>ios-password confirm</title>
    <desc>Created with Sketch.</desc>
    <defs/>
    <g id="ios-password-confirm" stroke="none" stroke-width="1" fill="none" fill-rule="evenodd">
        <g id="ios-mail" transform="translate(1.000000, 4.000000)" fill="#000000" fill-rule="nonzero">
            <path d="M18.8447115,1.61225962 L13.9302885,6.61802885 C13.89375,6.65456731 13.89375,6.709375 13.9302885,6.74591346 L17.3694712,10.4088942 C17.6024038,10.6418269 17.6024038,11.0163462 17.3694712,11.2492788 C17.2552885,11.3634615 17.1,11.4228365 16.9492788,11.4228365 C16.7985577,11.4228365 16.6432692,11.3634615 16.5290865,11.2492788 L13.1036058,7.6 C13.0670673,7.56346154 13.0076923,7.56346154 12.9711538,7.6 L12.1353365,8.44951923 C11.4365385,9.15745192 10.509375,9.55024038 9.51370192,9.55480769 C8.50432692,9.559375 7.54519231,9.13461538 6.83725962,8.41754808 L6.03341346,7.6 C5.996875,7.56346154 5.9375,7.56346154 5.90096154,7.6 L2.47548077,11.2492788 C2.36129808,11.3634615 2.20600962,11.4228365 2.05528846,11.4228365 C1.90456731,11.4228365 1.74927885,11.3634615 1.63509615,11.2492788 C1.40216346,11.0163462 1.40216346,10.6418269 1.63509615,10.4088942 L5.07427885,6.74591346 C5.10625,6.709375 5.10625,6.65456731 5.07427885,6.61802885 L0.155288462,1.61225962 C0.0959134615,1.55288462 0,1.59399038 0,1.67620192 L0,11.6923077 C0,12.4961538 0.657692308,13.1538462 1.46153846,13.1538462 L17.5384615,13.1538462 C18.3423077,13.1538462 19,12.4961538 19,11.6923077 L19,1.67620192 C19,1.59399038 18.8995192,1.55745192 18.8447115,1.61225962 Z" id="Shape"/>
            <path d="M9.5,8.36274038 C10.1759615,8.36274038 10.8108173,8.09783654 11.2858173,7.61370192 L18.4519231,0.319711538 C18.2007212,0.11875 17.8901442,0 17.5475962,0 L1.45697115,0 C1.11442308,0 0.799278846,0.11875 0.552644231,0.319711538 L7.71875,7.61370192 C8.18918269,8.09326923 8.82403846,8.36274038 9.5,8.36274038 Z" id="Shape"/>
        </g>
    </g>
</svg>