<?xml version="1.0" encoding="UTF-8"?>
<svg width="21px" height="21px" viewBox="0 0 21 21" version="1.1" xmlns="http://www.w3.org/2000/svg" xmlns:xlink="http://www.w3.org/1999/xlink">
    <!-- Generator: Sketch 51.2 (57519) - http://www.bohemiancoding.com/sketch -->
    <title>ios-password</title>
    <desc>Created with Sketch.</desc>
    <defs/>
    <g id="ios-password" stroke="none" stroke-width="1" fill="none" fill-rule="evenodd">
        <g id="ios-lock" transform="translate(3.000000, 1.000000)" fill="#000000" fill-rule="nonzero">
            <path d="M13.125,6.92333882 L12,6.92333882 L12,4.67819148 C12,2.14458838 10.03125,0.0388613221 7.5609375,0.000400553973 C5.0578125,-0.0332526182 3,2.05805165 3,4.61569273 L3,6.92333882 L1.875,6.92333882 C0.84375,6.92333882 0,7.78870611 0,8.84637723 L0,18.0769616 C0,19.1346327 0.84375,20 1.875,20 L13.125,20 C14.15625,20 15,19.1346327 15,18.0769616 L15,8.84637723 C15,7.78870611 14.15625,6.92333882 13.125,6.92333882 Z M8.15625,12.9232187 L8.15625,16.2308447 C8.15625,16.5914144 7.884375,16.9039082 7.5328125,16.9231385 C7.1578125,16.9423689 6.84375,16.6346828 6.84375,16.2500751 L6.84375,12.9232187 C6.3046875,12.6539933 5.9484375,12.0674666 6.0046875,11.3992107 C6.0703125,10.6540333 6.665625,10.0578914 7.3921875,10.0050079 C8.26875,9.94250912 9,10.6540333 9,11.538631 C9,12.1491957 8.6578125,12.6732237 8.15625,12.9232187 Z M10.6875,6.92333882 L4.3125,6.92333882 L4.3125,4.61569273 C4.3125,3.74551785 4.6453125,2.92822653 5.25,2.30804664 C5.8546875,1.68786676 6.6515625,1.34652744 7.5,1.34652744 C8.3484375,1.34652744 9.1453125,1.68786676 9.75,2.30804664 C10.3546875,2.92822653 10.6875,3.74551785 10.6875,4.61569273 L10.6875,6.92333882 Z" id="Shape"/>
        </g>
    </g>
</svg>