<?xml version="1.0" encoding="UTF-8"?>
<svg width="21px" height="21px" viewBox="0 0 21 21" version="1.1" xmlns="http://www.w3.org/2000/svg" xmlns:xlink="http://www.w3.org/1999/xlink">
    <!-- Generator: Sketch 51.2 (57519) - http://www.bohemiancoding.com/sketch -->
    <title>ios-contact</title>
    <desc>Created with Sketch.</desc>
    <defs/>
    <g id="ios-contact" stroke="none" stroke-width="1" fill="none" fill-rule="evenodd">
        <g fill="#000000" fill-rule="nonzero" id="Shape">
            <path d="M10.5,0 C5.07331731,0 0.610817308,4.11418269 0.0605769231,9.39447115 C0.0201923077,9.75793269 0,10.1264423 0,10.5 C0,10.8735577 0.0201923077,11.2420673 0.0605769231,11.6055288 C0.610817308,16.8858173 5.07331731,21 10.5,21 C16.3002404,21 21,16.3002404 21,10.5 C21,4.69975962 16.3002404,0 10.5,0 Z M17.3552885,16.4617788 C16.209375,16.0276442 14.3516827,15.3915865 13.1956731,15.0483173 C13.0745192,15.0129808 13.059375,15.0028846 13.059375,14.5081731 C13.059375,14.0992788 13.2259615,13.6853365 13.3925481,13.3319712 C13.5742788,12.9533654 13.78125,12.3122596 13.8569712,11.7367788 C14.0689904,11.4894231 14.3617788,11.0048077 14.5435096,10.0759615 C14.7050481,9.25817308 14.6293269,8.96033654 14.5233173,8.68269231 C14.5132212,8.65240385 14.4980769,8.62211538 14.4930288,8.596875 C14.4526442,8.40504808 14.5081731,7.41057692 14.6495192,6.63822115 C14.7454327,6.10817308 14.6242788,4.98245192 13.8973558,4.04855769 C13.4379808,3.45793269 12.5545673,2.73605769 10.9442308,2.63509615 L10.0608173,2.63509615 C8.47572115,2.73605769 7.59735577,3.45793269 7.13293269,4.04855769 C6.40096154,4.98245192 6.27980769,6.10817308 6.37572115,6.63822115 C6.51706731,7.41057692 6.57259615,8.40504808 6.53221154,8.596875 C6.52211538,8.63221154 6.51201923,8.65745192 6.50192308,8.68774038 C6.39591346,8.96538462 6.31514423,9.26322115 6.48173077,10.0810096 C6.66850962,11.0098558 6.95625,11.4944712 7.16826923,11.7418269 C7.24399038,12.3173077 7.45600962,12.9533654 7.63269231,13.3370192 C7.76394231,13.6146635 7.82451923,13.9932692 7.82451923,14.5283654 C7.82451923,15.028125 7.80432692,15.0331731 7.69326923,15.0685096 C6.496875,15.421875 4.71995192,16.0478365 3.65480769,16.471875 C2.20096154,14.8110577 1.41346154,12.7161058 1.41346154,10.5 C1.41346154,8.071875 2.35745192,5.79014423 4.07379808,4.07379808 C5.79014423,2.35745192 8.071875,1.41346154 10.5,1.41346154 C12.928125,1.41346154 15.2098558,2.35745192 16.9262019,4.07379808 C18.6425481,5.79014423 19.5865385,8.071875 19.5865385,10.5 C19.5865385,12.7161058 18.7990385,14.8110577 17.3552885,16.4617788 Z"/>
        </g>
    </g>
</svg>