<?xml version="1.0" encoding="UTF-8"?>
<svg width="19px" height="19px" viewBox="0 0 19 19" version="1.1" xmlns="http://www.w3.org/2000/svg" xmlns:xlink="http://www.w3.org/1999/xlink">
    <!-- Generator: Sketch 51.2 (57519) - http://www.bohemiancoding.com/sketch -->
    <title>  Settings icon</title>
    <desc>Created with Sketch.</desc>
    <defs/>
    <g id="--Settings-icon" stroke="none" stroke-width="1" fill="none" fill-rule="evenodd">
        <path d="M17.4315104,9.49752669 C17.4315104,8.4587347 18.0796875,7.57328821 19,7.21713096 C18.7575521,6.20307212 18.3567708,5.25331945 17.8273438,4.39260609 C17.5106771,4.53111169 17.1742188,4.60531112 16.8328125,4.60531112 C16.209375,4.60531112 15.5859375,4.36787295 15.1059896,3.89299662 C14.36875,3.15594897 14.2054688,2.07263733 14.6013021,1.17235095 C13.7453125,0.643061703 12.7903646,0.242384796 11.7809896,7.02958187e-16 C11.4296875,0.915126269 10.5390625,1.56808123 9.5,1.56808123 C8.4609375,1.56808123 7.5703125,0.915126269 7.21901042,0 C6.2046875,0.242384796 5.2546875,0.643061703 4.39375,1.17235095 C4.79453125,2.06769071 4.62630208,3.15594897 3.8890625,3.89299662 C3.4140625,4.36787295 2.78567708,4.60531112 2.16223958,4.60531112 C1.82083333,4.60531112 1.484375,4.53605832 1.16770833,4.39260609 C0.643229167,5.25826608 0.242447917,6.20801875 0,7.22207758 C0.915364583,7.57328821 1.56848958,8.4587347 1.56848958,9.50247331 C1.56848958,10.5412653 0.9203125,11.4267118 0.00494791667,11.782869 C0.247395833,12.7969279 0.648177083,13.7466806 1.17760417,14.6073939 C1.49427083,14.4688883 1.83072917,14.3996355 2.1671875,14.3996355 C2.790625,14.3996355 3.4140625,14.6370737 3.89401042,15.11195 C4.62630208,15.844051 4.79453125,16.9323093 4.39869792,17.827649 C5.25963542,18.3569383 6.21458333,18.7576152 7.22395833,19 C7.57526042,18.0848737 8.4609375,17.4368654 9.5,17.4368654 C10.5390625,17.4368654 11.4247396,18.0848737 11.7760417,19 C12.7903646,18.7576152 13.7403646,18.3569383 14.6013021,17.827649 C14.2054688,16.9323093 14.3736979,15.8489977 15.1059896,15.11195 C15.5809896,14.6370737 16.2044271,14.3996355 16.8328125,14.3996355 C17.1692708,14.3996355 17.5106771,14.4688883 17.8223958,14.6073939 C18.3518229,13.7466806 18.7526042,12.7919813 18.9950521,11.782869 C18.0846354,11.4267118 17.4315104,10.5412653 17.4315104,9.49752669 Z M9.54453125,13.4498828 C7.35260417,13.4498828 5.58619792,11.6740432 5.58619792,9.49258006 C5.58619792,7.3111169 7.35260417,5.53527727 9.54453125,5.53527727 C11.7364583,5.53527727 13.5028646,7.3111169 13.5028646,9.49258006 C13.5028646,11.6740432 11.7364583,13.4498828 9.54453125,13.4498828 Z" id="Shape" fill="#1F314A" fill-rule="nonzero"/>
    </g>
</svg>