<?xml version="1.0" encoding="UTF-8"?>
<svg width="24px" height="21px" viewBox="0 0 24 21" version="1.1" xmlns="http://www.w3.org/2000/svg" xmlns:xlink="http://www.w3.org/1999/xlink">
    <!-- Generator: Sketch 51.2 (57519) - http://www.bohemiancoding.com/sketch -->
    <title>noun_History_11143</title>
    <desc>Created with Sketch.</desc>
    <defs/>
    <g id="noun_History_11143" stroke="none" stroke-width="1" fill="none" fill-rule="evenodd">
        <g fill="#FFFFFF" fill-rule="nonzero" id="Group">
            <g>
                <path d="M16.9820426,12.33125 L13.673617,12.3305 L13.673617,6.7755 C13.673617,6.32325 13.2990638,5.95775 12.8384681,5.95775 C12.3778723,5.95775 12.0033191,6.3235 12.0033191,6.7755 L12.0033191,13.1485 C12.0033191,13.6005 12.3778723,13.96625 12.8384681,13.96625 L12.8397447,13.96625 L16.9817872,13.96625 C17.4426383,13.96625 17.8166809,13.6005 17.8166809,13.14875 C17.8164255,12.69775 17.442383,12.33125 16.9820426,12.33125 Z" id="Shape"/>
                <path d="M20.7954894,3.11625 C16.6394043,-0.95325 9.87651064,-0.95325 5.71914894,3.11625 C3.88493617,4.91275 2.79676596,7.26425 2.62212766,9.783 L1.536,8.63775 C1.22170213,8.30725 0.692425532,8.2875 0.354638298,8.59475 C0.0160851064,8.9025 -0.00331914894,9.42075 0.310723404,9.75225 L2.72987234,12.30275 C2.89455319,12.47625 3.11821277,12.56425 3.3426383,12.56425 C3.54612766,12.56425 3.75012766,12.492 3.91123404,12.34575 L6.51676596,9.97675 C6.85531915,9.669 6.8747234,9.15075 6.56068085,8.81975 C6.2466383,8.4885 5.7173617,8.4685 5.37906383,8.77675 L4.31080851,9.74775 C4.48953191,7.6805 5.39131915,5.75325 6.90153191,4.27375 C10.4062979,0.8425 16.1085957,0.8425 19.6131064,4.27375 C23.1173617,7.70525 23.1173617,13.28925 19.6131064,16.72075 C17.9157447,18.383 15.6584681,19.2985 13.2571915,19.2985 C10.8571915,19.2985 8.59991489,18.38325 6.90153191,16.72075 C6.5747234,16.401 6.04519149,16.401 5.71889362,16.72075 C5.39259574,17.0405 5.39259574,17.55925 5.71914894,17.8785 C7.73361702,19.85025 10.4106383,20.93575 13.2571915,20.93575 C16.104766,20.93575 18.7817872,19.85 20.795234,17.8785 C24.9518298,13.80875 24.9518298,7.186 20.7954894,3.11625 Z" id="Shape"/>
            </g>
        </g>
    </g>
</svg>