<?xml version="1.0" encoding="UTF-8"?>
<svg width="137px" height="137px" viewBox="0 0 137 137" version="1.1" xmlns="http://www.w3.org/2000/svg" xmlns:xlink="http://www.w3.org/1999/xlink">
    <!-- Generator: Sketch 51.2 (57519) - http://www.bohemiancoding.com/sketch -->
    <title>Group 6</title>
    <desc>Created with Sketch.</desc>
    <defs>
        <polygon id="path-1" points="0 0 137 0 137 136.999967 0 136.999967"></polygon>
    </defs>
    <g id="App-IOS" stroke="none" stroke-width="1" fill="none" fill-rule="evenodd">
        <g id="Congrats" transform="translate(-125.000000, -128.000000)">
            <g id="Group-6" transform="translate(125.000000, 128.000000)">
                <path d="M103.6248,48.4371957 L97.8218286,42.4002401 C97.5910286,42.1334134 97.2286726,42 96.8989583,42 C96.5359429,42 96.2062286,42.1334134 95.9757583,42.4002401 L55.7502857,83.3915016 L41.1109714,68.5826162 C40.8475297,68.3157895 40.5178154,68.1823761 40.1881011,68.1823761 C39.8583869,68.1823761 39.5286726,68.3157895 39.2645714,68.5826162 L33.3956571,74.5195117 C32.8681143,75.0531652 32.8681143,75.8869989 33.3956571,76.4206524 L51.8596571,95.0985258 C53.0469583,96.2992462 54.4973714,97 55.7173143,97 C57.4648,97 58.9818154,95.698886 59.542,95.165566 L59.5749714,95.165566 L103.658101,50.3383363 C104.119371,49.7713295 104.119371,48.9374958 103.6248,48.4371957 Z" id="Fill-1" fill="#FFFFFF"></path>
                <g id="Group-5">
                    <mask id="mask-2" fill="white">
                        <use xlink:href="#path-1"></use>
                    </mask>
                    <g id="Clip-4"></g>
                    <path d="M68.5,-3.29326923e-05 C30.6603365,-3.29326923e-05 0,30.6603036 0,68.4999671 C0,106.339631 30.6603365,136.999967 68.5,136.999967 C106.339663,136.999967 137,106.339631 137,68.4999671 C137,30.6603036 106.339663,-3.29326923e-05 68.5,-3.29326923e-05 M68.5,9.22112091 C84.340625,9.22112091 99.2262019,15.3795344 110.423317,26.5766498 C121.620433,37.7737651 127.778846,52.6593421 127.778846,68.4999671 C127.778846,84.3405921 121.620433,99.226169 110.423317,110.423284 C99.2262019,121.6204 84.340625,127.778813 68.5,127.778813 C52.659375,127.778813 37.7737981,121.6204 26.5766827,110.423284 C15.3795673,99.226169 9.22115385,84.3405921 9.22115385,68.4999671 C9.22115385,52.6593421 15.3795673,37.7737651 26.5766827,26.5766498 C37.7737981,15.3795344 52.659375,9.22112091 68.5,9.22112091" id="Fill-3" fill="#FFFFFF" mask="url(#mask-2)"></path>
                </g>
            </g>
        </g>
    </g>
</svg>